<?xml version="1.0" standalone="no"?><!DOCTYPE svg PUBLIC "-//W3C//DTD SVG 1.1//EN" "http://www.w3.org/Graphics/SVG/1.1/DTD/svg11.dtd"><svg t="1723599896592" class="icon" viewBox="0 0 1024 1024" version="1.1" xmlns="http://www.w3.org/2000/svg" p-id="8620" xmlns:xlink="http://www.w3.org/1999/xlink" width="200" height="200"><path d="M133.173 594.979h-41.31v-215.23H13.428v-40.967h198.179v40.967h-78.434v215.23zM103.98 582.86h17.075V367.631h78.434V350.9H25.544v16.731h78.435l0.001 215.229zM409.022 594.979h-41.31v-119.5h-97.425v119.5h-41.31v-256.2h41.31v95.732h97.425v-95.732h41.31v256.2zM379.83 582.86h17.073V350.897H379.83v95.732H258.168v-95.732h-17.074V582.86h17.074v-119.5H379.83v119.5zM655.923 594.979h-53.252l-73.422-97.041h-32.062v97.041h-41.309v-256.2h67.538c13.629 0 25.22 1.012 34.452 3.006 9.594 2.074 18.361 5.839 26.063 11.192 8.732 6.114 15.642 13.917 20.549 23.21 4.917 9.312 7.411 21.102 7.411 35.04 0 18.736-4.364 34.736-12.973 47.556-7.206 10.734-16.784 19.331-28.537 25.632l85.542 110.564z m-47.225-12.119h22.527l-79.789-103.128 7.179-3.091c12.804-5.514 22.98-13.795 30.242-24.613 7.242-10.786 10.915-24.515 10.915-40.8 0-11.946-2.021-21.831-6.009-29.382-4.001-7.574-9.641-13.941-16.767-18.929-6.366-4.424-13.67-7.552-21.69-9.286-8.393-1.813-19.123-2.731-31.892-2.731h-55.421v231.965h17.073v-97.043h50.209l73.423 97.038z m-88.083-111.97H485.07V366.646h40.411c8.246 0 15.572 0.681 21.777 2.023 6.631 1.438 12.479 4.033 17.391 7.712 5.94 4.32 10.323 9.804 12.955 16.244 2.501 6.115 3.771 13.146 3.771 20.897 0 9.828-1.184 18.148-3.518 24.729-2.396 6.749-6.149 12.804-11.152 17.998-5.607 5.725-12.45 9.662-20.371 11.738-7.356 1.926-16.008 2.903-25.719 2.903z m-23.427-12.118h23.428c8.674 0 16.294-0.843 22.644-2.508 5.853-1.533 10.679-4.301 14.751-8.46a37.661 37.661 0 0 0 8.422-13.604c1.873-5.275 2.822-12.232 2.822-20.677 0-6.171-0.965-11.661-2.867-16.313-1.795-4.385-4.717-8.01-8.939-11.081-3.575-2.678-7.845-4.55-12.758-5.617-5.359-1.16-11.824-1.749-19.21-1.749h-28.293v80.009zM822.574 594.979h-156.75v-256.2h156.75v40.968H707.133v54.762h115.441v40.969H707.133v78.531h115.441v40.97zM677.941 582.86h132.515v-16.732H695.015V463.36h115.441v-16.733H695.015V367.63h115.441v-16.732H677.941V582.86zM1013.5 594.979H856.75v-256.2h156.75v40.968H898.061v54.762H1013.5v40.969H898.061v78.531H1013.5v40.97zM868.867 582.86h132.515v-16.732h-115.44V463.36h115.439v-16.733H885.942V367.63h115.439v-16.732H868.867V582.86z" fill="#e89abe" p-id="8621"></path></svg>